<?xml version="1.0" standalone="no"?>
<!DOCTYPE svg PUBLIC "-//W3C//DTD SVG 20010904//EN"
 "http://www.w3.org/TR/2001/REC-SVG-20010904/DTD/svg10.dtd">
<svg version="1.0" xmlns="http://www.w3.org/2000/svg"
 width="297.000000pt" height="297.000000pt" viewBox="0 0 297.000000 297.000000"
 preserveAspectRatio="xMidYMid meet">
<metadata>
Created by potrace 1.14, written by Peter Selinger 2001-2017
</metadata>
<g transform="translate(0.000000,297.000000) scale(0.100000,-0.100000)"
fill="#000000" stroke="none">
<path d="M320 2956 c-117 -26 -224 -108 -275 -210 l-26 -51 1018 -5 c1012 -5
1019 -5 1118 -28 291 -66 478 -170 616 -342 53 -66 106 -168 130 -250 17 -59
17 -306 0 -380 -36 -153 -112 -323 -210 -469 -67 -102 -241 -285 -355 -376
-347 -274 -812 -456 -1189 -464 -85 -2 -264 17 -327 35 -70 20 -101 43 -139
102 -34 53 -37 81 -20 164 32 158 265 525 823 1298 245 339 277 381 304 391
13 5 63 9 111 9 74 0 93 -3 115 -21 42 -33 55 -9 -185 -354 -308 -443 -869
-1282 -869 -1299 0 -23 64 -38 163 -38 280 1 600 115 894 319 120 83 158 115
277 231 202 199 307 379 326 562 24 230 -103 441 -334 554 -141 69 -320 102
-478 88 l-77 -7 -153 -210 -154 -210 -712 -3 -712 -2 0 -25 0 -25 705 0 705 0
-108 -148 c-59 -82 -172 -239 -252 -350 l-145 -201 -452 -1 -453 0 0 -25 0
-25 444 -2 444 -3 -252 -347 -251 -347 -192 -1 -193 0 0 -48 c0 -167 77 -313
206 -388 92 -54 88 -54 1275 -54 747 0 1114 3 1154 11 115 21 223 96 281 195
54 92 54 88 54 1275 0 747 -3 1114 -11 1154 -21 115 -96 223 -195 281 -92 54
-87 54 -1284 53 -833 -1 -1119 -4 -1160 -13z"/>
</g>
</svg>
